PathFileType	4	(X/Y/Z)	OpenSim_Sub03_CSBaseline_Magnet.trc
DataRate	CameraRate	NumFrames	NumMarkers	Units	OrigDataRate	OrigDataStartFrame	OrigNumFrames
100	100	33	8	m	100	1162	9288
Frame#	Time	torso_imu_offset_imu	pelvis_imu_offset_imu	tibia_r_imu_offset_imu	femur_r_imu_offset_imu	tibia_l_imu_offset_imu	femur_l_imu_offset_imu	toes_r_imu_offset_imu	toes_l_imu_offset_imu
				X1	Y1	Z1	X2	Y2	Z2	X3	Y3	Z3	X4	Y4	Z4	X5	Y5	Z5	X6	Y6	Z6	X7	Y7	Z7	X8		Y8	Z8	

1162	11.61000000	-0.88064111	-0.24663242	0.21585883	-0.73063499	0.24872150	-0.54890482	-0.40215997	-0.70019760	-0.12417267	-0.72077630	-0.43853189	-0.14775058	-0.65786718	0.45177008	0.20323079	-0.67643497	0.36662304	0.33127261	-0.63572207	-0.43936362	-0.19370032	-0.73124684	-0.21700260	-0.27879968
1163	11.62000000	-0.87867743	-0.24702057	0.21881628	-0.72586524	0.25088850	-0.55224774	-0.42314673	-0.68529623	-0.12928837	-0.72215745	-0.43202419	-0.14602752	-0.65624341	0.46329540	0.20038331	-0.67963444	0.37017167	0.33511302	-0.63917246	-0.42357927	-0.21298368	-0.73523657	-0.21592466	-0.27921790
1164	11.63000000	-0.87734180	-0.23998004	0.22027897	-0.72866454	0.25047022	-0.55029128	-0.44280579	-0.67403491	-0.12625147	-0.72244370	-0.43066332	-0.14294609	-0.64656370	0.46798210	0.20292803	-0.68101669	0.37639271	0.33828963	-0.63683755	-0.41159888	-0.22674013	-0.73226867	-0.21879475	-0.28176517
1165	11.64000000	-0.87929048	-0.24351269	0.21916459	-0.72741910	0.25220877	-0.55120473	-0.46961261	-0.66073853	-0.11845311	-0.73319556	-0.42871256	-0.13936598	-0.64245834	0.46946933	0.20686787	-0.67068644	0.37664530	0.34016736	-0.63854708	-0.39496793	-0.25133164	-0.73513107	-0.22198501	-0.27714012
1166	11.65000000	-0.87769538	-0.24115954	0.21829045	-0.72609551	0.24686319	-0.55587946	-0.48736572	-0.64813856	-0.11460507	-0.72935480	-0.42558943	-0.14052103	-0.64181334	0.47370327	0.20176260	-0.66825375	0.37975117	0.33616311	-0.64503016	-0.37542372	-0.26820355	-0.73156499	-0.21592547	-0.27831683
1167	11.66000000	-0.88250538	-0.23923370	0.21914744	-0.72865837	0.24619752	-0.54996473	-0.50790441	-0.63006047	-0.11261645	-0.73146443	-0.42291390	-0.14307305	-0.63784547	0.48229584	0.20395432	-0.66685285	0.39095846	0.34003520	-0.65240855	-0.35881261	-0.28964659	-0.73878055	-0.21583283	-0.28135866
1168	11.67000000	-0.87759669	-0.24326295	0.21879558	-0.72605108	0.24299233	-0.54989444	-0.52915434	-0.61409514	-0.11088962	-0.73056221	-0.42117834	-0.14017553	-0.63939622	0.48480577	0.20560165	-0.65895382	0.39575634	0.33921075	-0.65429671	-0.33643017	-0.30801592	-0.74204904	-0.21552893	-0.28548507
1169	11.68000000	-0.87918233	-0.24229396	0.22221897	-0.72525623	0.24550913	-0.55566849	-0.55242117	-0.59007457	-0.10815649	-0.72243433	-0.42092534	-0.13639224	-0.63628724	0.48957408	0.20170363	-0.66387076	0.39705645	0.33816853	-0.65664810	-0.31278721	-0.32894677	-0.73700871	-0.21811653	-0.28299264
1170	11.69000000	-0.88083083	-0.23936601	0.21917362	-0.72515311	0.24491956	-0.55785660	-0.57218157	-0.57166964	-0.11072267	-0.72217445	-0.42614362	-0.13975867	-0.62939900	0.49557852	0.20422182	-0.65926849	0.39716128	0.34194238	-0.65674198	-0.29280961	-0.34550390	-0.74037087	-0.21363832	-0.28080219
1171	11.70000000	-0.88043077	-0.23595008	0.22132779	-0.71828684	0.24551462	-0.55631259	-0.58471252	-0.55649406	-0.10188989	-0.72500300	-0.42034463	-0.14332681	-0.62918130	0.49425633	0.20294470	-0.65731361	0.40096328	0.33550325	-0.65826812	-0.26773061	-0.35862462	-0.74068896	-0.21014085	-0.28054649
1172	11.71000000	-0.88119542	-0.23630915	0.22802615	-0.72716866	0.24361190	-0.55833930	-0.60726328	-0.53761643	-0.09876100	-0.72576892	-0.42753410	-0.15130985	-0.62436192	0.50278369	0.20142235	-0.65363882	0.40731933	0.34024885	-0.66039545	-0.24552901	-0.38034435	-0.73438258	-0.20561054	-0.27666051
1173	11.72000000	-0.88312642	-0.23678130	0.23145540	-0.72445924	0.24207043	-0.55920603	-0.62559481	-0.51685125	-0.09579875	-0.72241820	-0.43029612	-0.14596990	-0.62028678	0.51106403	0.20292849	-0.64732801	0.41148670	0.34226017	-0.65639727	-0.23080480	-0.38741039	-0.74371460	-0.20766566	-0.27859568
1174	11.73000000	-0.88236462	-0.23436223	0.22391135	-0.71969401	0.24394845	-0.56394239	-0.63918350	-0.49324643	-0.09807653	-0.71835070	-0.43164440	-0.14676220	-0.61598345	0.51192002	0.20310651	-0.64706476	0.41552188	0.34125181	-0.65346821	-0.20667966	-0.40501854	-0.74724159	-0.20484662	-0.27472561
1175	11.74000000	-0.88009524	-0.23042407	0.21657902	-0.71755709	0.23850039	-0.56598782	-0.65195093	-0.47396682	-0.09940734	-0.71789869	-0.43925458	-0.14632718	-0.61042706	0.51455741	0.20523956	-0.63480425	0.41693246	0.34147239	-0.65360866	-0.18740086	-0.41680496	-0.74574327	-0.20233027	-0.27981192
1176	11.75000000	-0.87848219	-0.23529869	0.22396090	-0.71784504	0.23811526	-0.56711726	-0.66856733	-0.45532527	-0.10433776	-0.71858477	-0.43927778	-0.14603992	-0.60576113	0.52435829	0.20735154	-0.64120466	0.42136886	0.33956401	-0.64683784	-0.16333590	-0.43056828	-0.74787913	-0.19738350	-0.27563151
1177	11.76000000	-0.88301210	-0.23301164	0.22484625	-0.71511850	0.23433906	-0.56927213	-0.67804364	-0.43699001	-0.11597919	-0.71746066	-0.45441063	-0.14741289	-0.60585905	0.52415510	0.20773844	-0.63863187	0.42916542	0.34116588	-0.64403862	-0.14601787	-0.44452114	-0.74936218	-0.19413373	-0.28299553
1178	11.77000000	-0.88626680	-0.23011675	0.23144444	-0.71526555	0.23513031	-0.57455718	-0.68777467	-0.40869959	-0.11619003	-0.72147012	-0.45427975	-0.14912127	-0.60375747	0.53497793	0.20772802	-0.63628199	0.43006914	0.33655909	-0.63700010	-0.12582615	-0.45476696	-0.75262723	-0.19024222	-0.28143014
1179	11.78000000	-0.87946926	-0.22866434	0.22314270	-0.71046808	0.23425839	-0.57559363	-0.70008040	-0.39263071	-0.12284399	-0.72050381	-0.44771370	-0.14682593	-0.59562187	0.53946271	0.20706543	-0.63817818	0.43421634	0.33968328	-0.63659839	-0.10442804	-0.46564731	-0.75006870	-0.18600027	-0.27420628
1180	11.79000000	-0.88341825	-0.22652718	0.22640054	-0.71175400	0.23236527	-0.57807108	-0.71096167	-0.37761117	-0.12999666	-0.71832150	-0.46306904	-0.14479062	-0.58713040	0.54907296	0.19919081	-0.63510208	0.43852487	0.33060904	-0.63370771	-0.08545081	-0.47151845	-0.75619762	-0.18240778	-0.28062816
1181	11.80000000	-0.89003365	-0.23087087	0.22607497	-0.70747006	0.23303670	-0.57391852	-0.71545584	-0.35980094	-0.13735659	-0.71903114	-0.46356422	-0.13636358	-0.59147639	0.55295873	0.20441405	-0.63005398	0.44111582	0.33220023	-0.63148794	-0.06218080	-0.47648726	-0.76139466	-0.17121726	-0.27792583
1182	11.81000000	-0.88512657	-0.22495017	0.22507768	-0.70884421	0.23188158	-0.57793377	-0.72195203	-0.34648296	-0.13900453	-0.71650883	-0.46183681	-0.14084556	-0.58521965	0.55833258	0.20020307	-0.62848307	0.44727604	0.33977758	-0.63113464	-0.04003186	-0.48477215	-0.75922782	-0.17283458	-0.27670012
1183	11.82000000	-0.88059442	-0.22027521	0.22357874	-0.70987432	0.22746281	-0.58196426	-0.72714599	-0.33515121	-0.14193851	-0.71321169	-0.46712243	-0.13392905	-0.57849224	0.57107924	0.20050955	-0.62802405	0.44591936	0.33143467	-0.62846680	-0.01704796	-0.48678897	-0.76931473	-0.16883525	-0.26965580
1184	11.83000000	-0.88553020	-0.22239064	0.22699652	-0.70748608	0.22673565	-0.58366276	-0.73298515	-0.31932471	-0.15291853	-0.71960259	-0.47593610	-0.13213842	-0.57384638	0.57219884	0.19745945	-0.62413514	0.45001795	0.33268086	-0.62769596	0.00346868	-0.49365365	-0.77130463	-0.16717992	-0.26590908
1185	11.84000000	-0.88929661	-0.21773244	0.22659183	-0.70903565	0.22552477	-0.58742695	-0.73488744	-0.31564787	-0.15107537	-0.72007253	-0.47737827	-0.13173750	-0.56874971	0.57543854	0.19787577	-0.62657087	0.45032132	0.33463859	-0.62639443	0.02026818	-0.49109916	-0.77296451	-0.16592376	-0.25983102
1186	11.85000000	-0.88448048	-0.22273080	0.22342589	-0.70837386	0.22169654	-0.58912476	-0.73666266	-0.30707597	-0.15462370	-0.72078673	-0.47779184	-0.12645331	-0.56079491	0.58593603	0.19435116	-0.62077069	0.45980374	0.32680107	-0.62915044	0.03234967	-0.49659587	-0.78038430	-0.16064118	-0.25168851
1187	11.86000000	-0.88596255	-0.21988851	0.22625391	-0.70261634	0.21882357	-0.58533113	-0.73711598	-0.30474912	-0.14956534	-0.72266666	-0.47447693	-0.12393353	-0.55820263	0.58890760	0.19887504	-0.62152501	0.46777902	0.32860398	-0.62603919	0.03081108	-0.49769532	-0.78721336	-0.16205361	-0.24270344
1188	11.87000000	-0.88835190	-0.21918305	0.22903570	-0.70363584	0.21632857	-0.58803439	-0.73894316	-0.30981600	-0.14713959	-0.71796770	-0.47320688	-0.11854390	-0.54546126	0.59527108	0.19216157	-0.61926904	0.46761729	0.32756325	-0.63141075	0.03468000	-0.48883171	-0.79302041	-0.15214671	-0.23166619
1189	11.88000000	-0.88528151	-0.22323148	0.22853043	-0.70304771	0.21826155	-0.59156592	-0.73788999	-0.31551949	-0.14187993	-0.71619448	-0.46686657	-0.12452750	-0.54276763	0.60239111	0.18728079	-0.61992642	0.46858736	0.31707713	-0.63559522	0.03560061	-0.48879955	-0.79558041	-0.15293605	-0.22446641
1190	11.89000000	-0.88256916	-0.21491496	0.22294273	-0.70393034	0.21468029	-0.59361052	-0.73510601	-0.31381830	-0.13406895	-0.72298363	-0.46705535	-0.11856462	-0.53762892	0.60971363	0.19292488	-0.61873998	0.46823685	0.32286382	-0.63867660	0.02544446	-0.48078302	-0.80519912	-0.14707629	-0.20652072
1191	11.90000000	-0.88799410	-0.21446970	0.22657584	-0.70465415	0.21137379	-0.58896284	-0.73152927	-0.31974472	-0.12669695	-0.72031089	-0.47232936	-0.11341831	-0.53039616	0.61942013	0.18827921	-0.61836405	0.47552555	0.31659370	-0.64124330	0.01631716	-0.47233051	-0.81317733	-0.14171055	-0.19712366
1192	11.91000000	-0.88479198	-0.22092927	0.22724185	-0.70410131	0.21278473	-0.58981923	-0.73222707	-0.32944247	-0.12400613	-0.71916834	-0.47362710	-0.10712493	-0.52194888	0.62181605	0.18319284	-0.62296341	0.47797931	0.30996481	-0.64825349	0.00623294	-0.46409460	-0.81486385	-0.14054861	-0.18276908
1193	11.92000000	-0.88618187	-0.22111982	0.22566863	-0.70773740	0.21299180	-0.58986997	-0.72911057	-0.34183594	-0.11919959	-0.71704767	-0.47067069	-0.10135057	-0.51623261	0.63470766	0.18009827	-0.62049285	0.47783836	0.30980872	-0.65689152	-0.00339539	-0.45021868	-0.82294510	-0.14111490	-0.16314747
1194	11.93000000	-0.89144528	-0.21926658	0.22423455	-0.70816187	0.20893947	-0.58909898	-0.72142090	-0.35166158	-0.11239625	-0.71633658	-0.47251644	-0.09330787	-0.50798475	0.63673624	0.18182466	-0.61830611	0.47788157	0.30466386	-0.66282092	-0.01571356	-0.43362451	-0.82091942	-0.14001007	-0.14185540
